<?xml version="1.0" encoding="utf-8"?>
<!-- Svg Vector Icons : http://www.onlinewebfonts.com/icon -->
<!DOCTYPE svg PUBLIC "-//W3C//DTD SVG 1.1//EN" "http://www.w3.org/Graphics/SVG/1.1/DTD/svg11.dtd">
<svg version="1.1" xmlns="http://www.w3.org/2000/svg" xmlns:xlink="http://www.w3.org/1999/xlink" x="0px" y="0px" viewBox="0 0 1000 1000" enable-background="new 0 0 1000 1000" xml:space="preserve">
<metadata> Svg Vector Icons : http://www.onlinewebfonts.com/icon </metadata>
<g><g transform="translate(0.000000,512.000000) scale(0.100000,-0.100000)"><path d="M2046.9,4979.8c-124.4-63.2-185.7-166.5-185.7-315.8c0-105.3,7.7-128.2,59.3-193.3c32.5-40.2,88.1-90,124.4-111c65.1-38.3,99.5-38.3,2955.4-38.3s2890.3,0,2955.4,38.3c36.4,21.1,91.9,70.8,124.4,111c51.7,65.1,59.3,88.1,59.3,193.3c0,151.2-61.3,254.6-185.7,315.8l-84.2,40.2H4998.5H2129.2L2046.9,4979.8z"/><path d="M4847.3,3756.7c-111-53.6-2926.7-2875-2966.9-2970.7c-88.1-212.5,44-449.8,269.9-486.2c170.4-26.8,143.6-49.8,1362.9,1165.7l1133.2,1133.2l1.9-3541.1c0-2700.8,5.7-3556.5,24.9-3604.3c11.5-34.5,49.8-91.9,86.1-128.3c168.4-172.3,436.4-126.3,547.5,93.8l47.9,95.7v3541.2v3543.1l1135.1-1133.2C7707,250,7680.2,272.9,7850.6,299.7c252.6,40.2,380.9,333.1,235.4,541.7c-28.7,40.2-685.3,708.2-1462.4,1483.5c-985.8,983.9-1433.7,1420.3-1483.5,1441.3C5042.5,3806.4,4939.2,3802.6,4847.3,3756.7z"/></g></g>
</svg>